<svg width="135" height="80" viewBox="0 0 135 80" fill="none" xmlns="http://www.w3.org/2000/svg">
<path fill-rule="evenodd" clip-rule="evenodd" d="M73.4293 1.57779C72.8111 2.44556 71.6696 3.90954 70.8925 4.83116C68.3445 7.85287 67.874 8.44603 67.1468 9.55437C66.7517 10.1567 66.3294 10.6495 66.2085 10.6495C65.6625 10.6495 61.7795 6.17778 59.3097 2.70492C57.7012 0.443031 58.0084 0.337354 56.1566 3.79065C54.5362 6.8121 52.777 9.43421 51.9289 10.0916C50.5931 11.1273 49.6524 10.8095 45.3757 7.87903C44.6429 7.37681 43.0896 6.00657 41.9237 4.83396C40.7577 3.6616 39.804 2.7598 39.804 2.83016C39.804 2.90078 40.2328 4.54944 40.757 6.49431C42.1778 11.7662 44.219 18.0012 45.4855 20.9378C45.6662 21.3569 46.1098 22.4429 46.4709 23.3511C47.7115 26.4693 48.993 28.8927 49.667 29.3952C51.3605 30.6575 54.9829 30.9273 64.5077 30.5003C68.1749 30.3359 72.4291 30.1449 73.9613 30.0758C80.1486 29.7963 83.5474 29.3076 84.0835 28.6204C84.2189 28.4467 84.7342 27.1691 85.2286 25.7811C85.723 24.3931 86.671 22.0497 87.3354 20.5735C89.1998 16.4307 91.0533 11.7022 91.6298 9.61762C92.2931 7.21931 92.6168 2.8454 92.1073 3.16015C91.92 3.27599 89.5656 4.95132 86.8757 6.88297C84.1588 8.83393 81.7424 10.3955 81.44 10.3955C79.7414 10.3955 76.4279 5.83764 75.0836 1.65222L74.5531 0L73.4293 1.57779ZM57.4277 42.7456C57.1946 42.9374 57.0018 43.3677 56.9996 43.7015C56.9972 44.0355 56.7656 45.166 56.4849 46.2139C55.8557 48.5611 55.6716 50.3302 55.9916 50.951C56.1249 51.2099 56.5549 51.6181 56.9468 51.8584C57.638 52.2822 57.6743 52.2783 58.144 51.7314C58.4105 51.4212 58.817 50.5387 59.0474 49.7703C59.2775 49.0018 59.8112 47.8041 60.2334 47.1088C61.1649 45.5742 61.2804 43.9741 60.5164 43.1916C59.8841 42.5441 58.0026 42.2723 57.4277 42.7456ZM90.9275 43.5239C90.8219 43.8158 90.2735 45.4264 89.709 47.103C89.1446 48.7796 88.4718 50.5865 88.2141 51.1184C87.9566 51.6504 87.8071 52.2885 87.8822 52.5364C87.9643 52.808 87.8246 53.1718 87.5307 53.4504C87.2623 53.7052 87.0428 54.0688 87.0428 54.2588C87.0428 54.4485 86.9445 54.8024 86.8243 55.045C86.7044 55.2876 86.3279 56.1719 85.9881 57.0102L85.3701 58.5344L84.0869 58.5976C81.7487 58.7132 81.2571 58.8707 81.2874 59.4954C81.3286 60.3522 81.6329 60.625 82.9386 60.9761C83.597 61.1529 84.1358 61.413 84.1358 61.554C84.1358 62.1162 82.849 66.2391 82.2637 67.5525C81.505 69.2547 81.2395 71.1089 81.7545 71.1089C81.9449 71.1089 82.2223 70.9816 82.3705 70.8262C83.1135 70.0471 83.4544 71.6828 82.7756 72.769C82.5353 73.1536 82.4885 73.3952 82.6544 73.3952C82.8029 73.3952 82.9246 73.5095 82.9246 73.6492C82.9246 73.9497 82.6733 73.9703 82.2717 73.7023C82.0689 73.5674 82.0433 73.225 82.1854 72.5632C82.3759 71.6779 82.3521 71.617 81.8175 71.617C81.0723 71.617 80.7327 72.3092 80.3487 74.6097C80.1789 75.6269 79.8245 76.7763 79.5614 77.164C79.2726 77.5892 79.1597 77.9995 79.277 78.1987C79.5619 78.6816 81.4337 79.5067 81.6009 79.2229C81.6784 79.0913 81.9432 78.9839 82.1893 78.9839C82.5336 78.9839 82.6045 79.1157 82.4965 79.5554C82.3669 80.0831 82.3902 80.0978 82.8008 79.746C83.1399 79.4556 83.2698 79.4404 83.3475 79.6825C83.4035 79.8572 83.6496 80 83.8945 80C84.3429 80 84.519 79.5318 84.7279 77.7843C84.7816 77.3344 84.9086 76.7057 85.0098 76.3872C85.1111 76.0689 85.2044 75.5799 85.2167 75.3004C85.2291 75.021 85.3836 74.5211 85.56 74.1893C85.7364 73.8575 85.9096 73.3119 85.9447 72.9771C85.9796 72.642 86.1945 72.1522 86.4222 71.8885C86.6496 71.6248 86.8863 71.0271 86.9481 70.5605C87.0096 70.0935 87.2044 69.3116 87.3805 68.8226C87.8476 67.5266 88.2703 66.2127 88.3667 65.759C88.413 65.5411 88.7335 64.748 89.0792 63.9968C89.4249 63.2454 89.7076 62.416 89.7076 62.1535C89.7076 60.9324 90.0608 60.7406 92.1863 60.8077C95.1919 60.9027 95.0371 60.8529 95.0371 61.7247C95.0371 62.152 95.1371 62.437 95.2597 62.3575C95.382 62.2783 95.556 62.5656 95.6461 62.9959C95.822 63.836 95.6165 64.3141 95.306 63.7872C95.2018 63.6104 95.1664 64.1281 95.2275 64.9377C95.2885 65.7471 95.4361 66.5379 95.5555 66.6949C95.6747 66.8516 96.2796 66.9908 96.8995 67.0038C97.5194 67.017 98.1032 67.1575 98.1967 67.3162C98.3232 67.5306 98.5059 67.5268 98.9065 67.302C99.3486 67.0541 99.4201 66.8539 99.3012 66.1962C98.7193 62.9774 98.2571 59.1672 98.0633 55.9941C97.9952 54.8763 97.7677 53.3397 97.5582 52.5796C97.3484 51.8193 97.0814 50.5819 96.9647 49.8297C96.8234 48.9206 96.4673 48.0462 95.9019 47.2211C95.4341 46.5382 94.8941 45.5849 94.7018 45.1022C94.4421 44.4504 94.0511 44.08 93.1807 43.6606C91.6213 42.9099 91.1596 42.882 90.9275 43.5239ZM6.56553 44.5728C6.49358 44.6485 5.95941 44.7702 5.37874 44.8436C4.79807 44.917 4.28425 45.0176 4.23701 45.0669C4.19002 45.1164 3.88091 46.2807 3.55023 47.654C3.21956 49.0275 2.81379 50.38 2.64858 50.6594C2.06403 51.6476 1.16746 56.8794 0.558927 62.8529C0.416726 64.2501 0.205483 65.9648 0.0899297 66.6634C-0.0331335 67.4074 -0.0294998 68.0336 0.0984084 68.1749C0.218807 68.3077 0.317161 68.848 0.317161 69.3757C0.317161 70.1383 0.45161 70.4276 0.97269 70.7855C1.73869 71.3119 3.04853 71.4036 2.87096 70.9184C2.71011 70.4781 3.10086 70.5201 3.46642 70.9819C4.04806 71.7168 4.60548 71.4297 4.94584 70.2203C5.19608 69.3315 5.3596 69.1082 5.68058 69.2151C6.02773 69.3304 6.11591 69.1176 6.23291 67.8809C6.51707 64.8798 6.91776 62.5951 7.24649 62.103C7.43254 61.8246 7.58467 61.3244 7.58467 60.9914C7.58467 60.3057 10.0367 57.551 10.8836 57.2853C11.348 57.1395 11.4127 57.2513 11.5661 58.4632C11.6591 59.1997 11.8962 59.9884 12.0927 60.216C12.2892 60.4437 12.6756 61.473 12.9515 62.5036C13.4798 64.4756 13.7308 65.0541 13.5988 63.9943C13.5554 63.646 13.6288 63.361 13.7621 63.361C13.8953 63.361 14.0133 63.9325 14.0239 64.6311C14.0569 66.7561 14.1116 67.0444 14.4813 67.0444C14.6831 67.0444 14.7819 67.1951 14.7095 67.3927C14.6395 67.5842 14.7308 67.8987 14.9125 68.0913C15.0944 68.2838 15.826 70.0991 16.5387 72.125C18.0496 76.4207 18.3672 77.0253 19.0024 76.8139C19.3212 76.7078 19.4549 76.789 19.4549 77.0888C19.4549 77.3952 19.5734 77.4622 19.8789 77.3286C20.1122 77.2265 20.6299 77.0144 21.0296 76.8569C21.4293 76.6994 21.8244 76.4725 21.9077 76.3529C21.9911 76.2332 22.3016 76.216 22.5979 76.3145C23.0739 76.4728 23.118 76.4245 22.9768 75.8971C22.8891 75.5689 22.3411 74.2716 21.7592 73.0141C21.1773 71.7567 20.5172 70.042 20.2922 69.2037C20.0671 68.3654 19.7423 67.508 19.5703 67.2984C19.3985 67.0889 19.1303 66.403 18.9746 65.7743C18.5085 63.8934 18.0245 62.4909 17.6158 61.8365C17.4036 61.4971 17.032 60.558 16.7899 59.7499C16.412 58.4879 16.3469 58.3949 16.3277 59.091C16.3156 59.5368 16.2127 59.9618 16.0988 60.0357C15.6516 60.3255 15.2519 58.7066 15.2262 56.5021C15.2117 55.2447 15.1221 54.0848 15.0271 53.9245C14.8483 53.6227 17.0758 51.3087 18.8234 49.9814C20.3045 48.856 20.4768 48.4849 19.9877 47.4708C19.4605 46.3777 18.0862 45.9006 17.5886 46.6378C16.5496 48.1765 15.5952 49.2787 14.8522 49.798C14.3859 50.1239 13.319 51.0511 12.4813 51.8587C11.6438 52.666 10.8039 53.3267 10.6155 53.3267C10.4268 53.3267 9.92723 53.7769 9.50548 54.3271C8.53139 55.5983 7.95241 55.8813 8.16801 54.9807C8.26322 54.5824 8.21816 54.3428 8.04786 54.3428C7.87973 54.3428 7.84533 54.1724 7.95847 53.8983C8.12513 53.4941 8.51637 51.2106 8.57887 50.2784C8.59292 50.0688 8.81022 49.1736 9.06167 48.2893C9.57428 46.4867 9.49458 46.1536 8.29834 45.0981C7.59557 44.4781 6.86664 44.257 6.56553 44.5728ZM47.0775 45.4477C46.7689 45.6479 46.0039 48.7714 45.6144 51.4215C45.4501 52.5392 45.1812 53.6824 45.0165 53.9618C44.8517 54.2412 43.6201 55.0414 42.2795 55.74C40.8476 56.4861 39.8798 57.1385 39.9338 57.3211C39.9847 57.4921 39.8604 57.7291 39.6579 57.8477C39.4556 57.9666 38.8059 58.5557 38.2146 59.1567C37.6232 59.7578 37.1392 60.1208 37.1392 59.9635C37.1392 59.3493 36.6407 59.7265 36.168 60.6982C35.6256 61.8129 35.1554 64.9621 35.3662 66.0674C35.6496 67.554 39.5225 68.4843 42.2265 67.7151C43.5005 67.3528 43.5824 67.3589 44.0937 67.8593C44.5514 68.3075 44.8106 68.3575 45.892 68.2071C47.7597 67.9472 48.0432 67.7199 47.9983 66.5175C47.9773 65.9569 47.8675 65.4382 47.7542 65.3648C47.6408 65.2911 47.6141 65.1189 47.695 64.9817C47.776 64.8445 47.8842 63.6808 47.9358 62.3954C47.9874 61.1102 48.2631 58.9726 48.5485 57.6453C48.8341 56.3179 49.1723 54.6604 49.3002 53.9618C49.4281 53.2632 49.6875 52.036 49.8767 51.2348C50.0659 50.4336 50.2207 49.5564 50.2207 49.2856C50.2207 49.0148 50.4933 48.4534 50.8264 48.0383C51.1595 47.6232 51.432 47.1665 51.432 47.0234C51.432 46.253 47.8406 44.9534 47.0775 45.4477ZM26.8254 46.2509C26.6212 46.6648 26.3915 47.5592 26.3147 48.2385C26.1914 49.3313 26.2474 49.5493 26.8012 50.13C27.7559 51.1311 29.4911 50.8814 31.3858 49.47C33.1053 48.1889 31.3213 46.0167 28.2312 45.6286C27.275 45.5084 27.168 45.5559 26.8254 46.2509ZM125.854 46.9124C125.688 47.5762 125.44 49.1431 125.302 50.395C125.164 51.6466 124.946 52.8039 124.817 52.9665C124.689 53.1293 124.013 53.3417 123.316 53.4382C120.462 53.8343 119.747 54.0896 119.747 54.7107C119.747 55.0295 119.981 55.6031 120.268 55.9852C120.767 56.6505 120.867 56.6761 122.63 56.591L124.47 56.5021L124.435 57.6453C124.4 58.7866 123.925 65.6744 123.848 66.1553C123.826 66.295 123.724 66.0664 123.623 65.6472C123.457 64.9662 123.435 65.0129 123.409 66.0885C123.382 67.2459 123.415 67.3073 124.289 67.7067C125.811 68.4022 127.045 68.562 127.923 68.1774C128.357 67.9871 129.393 67.757 130.225 67.6658C132.353 67.4328 134.144 66.8628 134.673 66.2506C135.112 65.741 135.112 65.7196 134.656 65.3703C134.082 64.9304 131.798 64.9006 129.913 65.3089C128.107 65.6998 127.701 65.5339 127.979 64.5173C128.12 64.0052 128.105 63.742 127.938 63.742C127.787 63.742 127.752 63.5111 127.852 63.1704C128.268 61.7537 128.494 60.1525 128.557 58.1825C128.639 55.6107 128.745 55.4949 131.22 55.2754C133.601 55.0643 134.163 54.8103 134.502 53.7919C134.934 52.493 134.505 52.3114 131.436 52.4938L128.884 52.6452L129.045 51.6524C129.134 51.1062 129.438 50.1221 129.721 49.4655C130.213 48.3228 130.217 48.2425 129.817 47.6029C129.409 46.9505 127.259 45.7132 126.524 45.7083C126.287 45.7066 126.048 46.1371 125.854 46.9124ZM93.8161 52.3741C94.2234 53.7962 94.5378 57.4537 94.2791 57.7558C94.1669 57.8863 93.4196 58.0431 92.6182 58.1038C91.3457 58.2003 91.1611 58.1574 91.1611 57.7644C91.1611 57.1385 93.1252 51.2945 93.3355 51.2945C93.4297 51.2945 93.6461 51.7802 93.8161 52.3741ZM69.0942 52.2026C66.8822 52.9063 64.7495 55.6359 64.3842 58.2311C64.2345 59.2944 64.2836 59.5314 64.7662 60.0702C65.5562 60.952 67.7296 61.7321 69.843 61.8924C72.104 62.0639 72.6081 62.4401 72.431 63.8251C72.3624 64.3613 72.2571 64.8516 72.197 64.9149C71.8993 65.2271 68.8127 65.5459 67.4506 65.4051C66.1913 65.2751 65.8219 65.3251 65.452 65.6762C64.5552 66.5275 65.0358 67.1496 67.2604 68.0171C69.1129 68.7393 71.7813 68.7683 73.3074 68.0821C75.4855 67.1033 76.4342 64.448 75.4443 62.1015C74.8874 60.7813 73.8334 60.1322 71.4983 59.6714C69.2265 59.2233 68.6318 58.9378 68.6318 58.2948C68.6318 57.4745 69.4695 56.4572 70.392 56.1569C70.8229 56.0167 72.057 55.8266 73.1342 55.7347C74.2115 55.6427 75.2348 55.4756 75.4078 55.3635C75.9826 54.9909 75.4574 53.9146 74.2605 53.0127C72.8525 51.9522 70.8631 51.6402 69.0942 52.2026ZM112.233 53.3592C110.238 54.4452 109.819 54.7036 108.68 55.5487C108.256 55.8635 107.849 56.1211 107.776 56.1211C107.704 56.1211 107.422 55.6656 107.151 55.1088C106.583 53.9402 105.932 53.4327 104.7 53.1969C104.02 53.0666 103.792 53.1202 103.676 53.4382C103.594 53.6633 103.456 55.5876 103.369 57.7149C103.282 59.8421 103.074 62.01 102.908 62.5321C102.29 64.4711 103.074 67.6668 104.219 67.8743C104.565 67.9373 105.039 68.0742 105.272 68.1789C105.576 68.3153 105.696 68.2523 105.696 67.9559C105.696 67.6477 105.842 67.5814 106.272 67.6945C106.815 67.8372 106.865 67.7526 107.114 66.2673C107.26 65.3988 107.328 64.6009 107.265 64.4937C107.202 64.3867 107.246 63.5736 107.362 62.687C107.512 61.5497 107.494 61.016 107.301 60.8753C107.124 60.7452 107.535 60.1866 108.482 59.2721C110.072 57.7365 110.834 57.2685 113.206 56.37C114.922 55.72 116.355 54.732 116.355 54.1986C116.355 53.8564 115.088 52.7516 114.413 52.506C114.211 52.4323 113.23 52.8164 112.233 53.3592ZM7.17793 54.6675C7.1009 55.3971 6.94271 56.1028 6.82667 56.2354C6.58684 56.5097 6.54178 54.5311 6.76756 53.6471C7.03331 52.6073 7.32014 53.3206 7.17793 54.6675ZM26.6159 53.5561C26.5347 53.6935 26.197 56.6307 25.8649 60.0829C25.3172 65.7798 25.2958 66.4147 25.6343 66.956C25.8392 67.284 26.2496 67.569 26.5463 67.5893C28.3535 67.7128 29.098 67.7206 29.69 67.6226C30.3148 67.5189 30.3562 67.4326 30.3562 66.231C30.3562 65.1211 30.3078 64.9921 29.9928 65.2662C29.6876 65.5319 29.6268 65.4859 29.6125 64.9796C29.5972 64.4414 29.5759 64.4292 29.4126 64.8666C29.2515 65.2974 29.2113 65.3061 29.0769 64.9385C28.9703 64.6471 29.1217 64.4218 29.5779 64.1924C30.2007 63.8794 30.2356 63.7621 30.315 61.7072C30.3659 60.388 30.5864 59.0079 30.8826 58.1533C31.693 55.8165 31.707 55.2569 30.9696 54.6487C30.6159 54.3571 29.7065 53.9895 28.9485 53.832C28.1905 53.6745 27.3886 53.4918 27.1667 53.4258C26.9448 53.36 26.697 53.4187 26.6159 53.5561ZM68.6318 53.9552C68.6318 54.0215 68.3176 54.2461 67.9334 54.4544C67.5494 54.6627 67.1657 55.123 67.0809 55.4771C66.9513 56.0189 66.4515 56.4193 66.4515 55.9813C66.4515 55.6021 67.2289 54.3373 67.6022 54.1091C68.0472 53.8373 68.6318 53.7499 68.6318 53.9552ZM111.535 55.1283C110.95 55.4006 110.422 55.5731 110.363 55.5111C110.187 55.3267 111.592 54.6167 112.116 54.6251C112.411 54.6297 112.185 54.8258 111.535 55.1283ZM109.323 56.131C108.748 56.512 108.438 56.3939 108.949 55.9887C109.206 55.785 109.475 55.6803 109.547 55.7565C109.62 55.8325 109.519 56.0009 109.323 56.131ZM66.273 57.1247C66.1373 57.3524 66.0586 57.9628 66.0978 58.481C66.1565 59.2568 66.0896 59.4235 65.719 59.4235C65.4714 59.4235 65.201 59.3084 65.1182 59.1679C64.9697 58.9157 65.3093 57.5589 65.8042 56.429C66.0324 55.9077 66.0823 55.8922 66.289 56.2793C66.437 56.5567 66.4312 56.8588 66.273 57.1247ZM7.74504 58.3438C7.67358 59.0076 7.60817 59.5792 7.59969 59.614C7.59146 59.6488 7.46694 59.6775 7.32328 59.6775C7.08055 59.6775 7.1462 58.892 7.49795 57.5817C7.73075 56.7147 7.87319 57.1545 7.74504 58.3438ZM14.075 58.6517C14.0087 59.1263 14.0879 59.4514 14.2899 59.5327C14.4658 59.6036 14.6099 59.8353 14.6099 60.0476C14.6099 60.2597 14.9459 61.5332 15.3563 62.8773C16.2284 65.7318 16.1775 66.4358 15.0995 66.4208C14.5637 66.4131 14.3982 66.3115 14.4941 66.0491C14.5668 65.8505 14.4864 65.5906 14.3154 65.4715C13.9563 65.222 15.1826 65.3904 15.5751 65.6447C15.8885 65.8479 15.8641 65.6101 15.4578 64.5041L15.1313 63.615L15.1128 64.3644C15.0852 65.4892 14.6044 64.812 14.4886 63.4849C14.436 62.8834 14.3001 62.3237 14.1862 62.2409C14.0724 62.1584 13.9849 61.6051 13.992 61.0114C13.9987 60.4175 13.9156 59.9318 13.8074 59.9318C13.6991 59.9315 13.6419 59.7314 13.6802 59.487C13.7187 59.2426 13.6644 58.8997 13.56 58.7249C13.3427 58.3616 13.5469 57.8993 13.9251 57.8993C14.0702 57.8993 14.1351 58.2237 14.075 58.6517ZM6.74891 59.1059C6.42817 60.9825 5.59677 64.5364 5.5018 64.437C5.35888 64.2869 6.11567 59.6648 6.41606 58.8519C6.78137 57.8642 6.94053 57.9857 6.74891 59.1059ZM43.805 62.1543C43.7103 64.0755 43.6151 65.6673 43.5937 65.6917C43.5722 65.7163 42.5249 65.602 41.2662 65.4377L38.9774 65.1392L38.9067 63.9854C38.7873 62.04 39.5864 60.7551 41.6209 59.6221C42.5535 59.1026 43.4653 58.6738 43.647 58.6695C43.9186 58.6629 43.9467 59.2835 43.805 62.1543ZM13.7325 62.0273C13.8454 62.5204 13.7986 62.7259 13.5738 62.7259C13.3132 62.7259 13.1896 61.8256 13.3674 61.2228C13.4285 61.016 13.575 61.3386 13.7325 62.0273ZM16.0688 62.1078C16.452 63.3254 16.1642 63.5489 15.7032 62.3921C15.2749 61.3173 15.2611 61.2017 15.56 61.2017C15.6831 61.2017 15.912 61.6094 16.0688 62.1078ZM17.1957 65.1437C17.1596 66.1294 17.1107 66.2302 16.8508 65.8573C16.4854 65.3335 16.4624 65.0122 16.7902 65.0122C16.9234 65.0122 17.0324 64.7835 17.0324 64.5041C17.0324 64.2247 17.0787 63.996 17.1352 63.996C17.1916 63.996 17.2187 64.5125 17.1957 65.1437ZM126.045 64.5191C126.045 64.6507 125.936 64.7581 125.803 64.7581C125.67 64.7581 125.561 64.5798 125.561 64.3621C125.561 64.1444 125.67 64.0367 125.803 64.123C125.936 64.2094 126.045 64.3875 126.045 64.5191ZM125.648 65.6472C125.572 65.8568 125.415 66.0283 125.3 66.0283C125.185 66.0283 125.154 65.8568 125.231 65.6472C125.307 65.4377 125.464 65.2662 125.579 65.2662C125.694 65.2662 125.725 65.4377 125.648 65.6472ZM96.0061 66.1703C96.0061 66.388 95.8971 66.4957 95.7638 66.4093C95.6306 66.323 95.5216 66.1449 95.5216 66.0133C95.5216 65.8817 95.6306 65.7743 95.7638 65.7743C95.8971 65.7743 96.0061 65.9526 96.0061 66.1703ZM17.0259 68.5363C17.1935 69.365 17.2803 70.1972 17.2182 70.3854C17.1562 70.5739 16.976 70.1012 16.8173 69.335C16.6586 68.5691 16.4627 67.666 16.382 67.3284C16.2909 66.9484 16.3275 66.7746 16.4779 66.8722C16.6117 66.9588 16.8583 67.7077 17.0259 68.5363ZM29.5083 67.2984C29.5907 67.4382 29.5425 67.5525 29.4015 67.5525C29.2605 67.5525 29.145 67.4382 29.145 67.2984C29.145 67.1587 29.1929 67.0444 29.2518 67.0444C29.3107 67.0444 29.426 67.1587 29.5083 67.2984ZM81.9556 74.8985C81.9556 75.7915 81.7402 76.4436 81.4451 76.4436C81.198 76.4436 81.1658 75.5727 81.3814 74.7289C81.5898 73.9137 81.9556 74.0219 81.9556 74.8985ZM80.7671 75.7592C80.5752 75.9604 80.5021 75.8943 80.5021 75.5207C80.5021 74.849 80.8407 74.4926 80.9488 75.0507C80.9945 75.2875 80.9127 75.6065 80.7671 75.7592Z" fill="black"/>
</svg>
