<svg width="32" height="34" fill="none" xmlns="http://www.w3.org/2000/svg"><path fill-rule="evenodd" clip-rule="evenodd" d="M16 0c.511 0 .957.37 1.082.896l2.735 11.52 6.532-8.084c.348-.43.934-.539 1.398-.259.465.28.677.871.507 1.41L23.803 19.56l6.382-5.444c.401-.342.97-.349 1.379-.016.407.333.549.92.341 1.42l-7.376 17.772c-.192.464-.64.746-1.115.704-.475-.043-.872-.401-.989-.892l-3.72-15.672-1.858 2.3a1.09 1.09 0 01-.847.413 1.09 1.09 0 01-.847-.413l-1.858-2.3-3.72 15.672c-.117.491-.514.85-.989.892-.475.042-.923-.24-1.115-.704L.095 15.52a1.233 1.233 0 01.34-1.418 1.065 1.065 0 011.379.014l6.28 5.339-4.35-13.977c-.167-.538.047-1.126.511-1.405a1.071 1.071 0 011.396.26l6.532 8.083L14.918.896C15.043.369 15.488 0 16 0zm-2.037 14.618L16 17.138l2.037-2.52L16 6.036l-2.037 8.582zm-2.448.612l-3.877-4.798 2.846 9.142 1.031-4.344zm-2.008 8.46l-1.303 5.49-4.229-10.19 5.532 4.702zm10.978-8.461l1 4.212 2.83-8.953-3.83 4.74zm2.014 8.484l1.297 5.465 4.222-10.173-5.52 4.708z" fill="#fff"/></svg>