<svg width="1512" height="2552" viewBox="0 0 1512 2552" fill="none" xmlns="http://www.w3.org/2000/svg">
<g clip-path="url(#clip0_510_790)">
<path d="M490.062 322.168C546.128 413.421 547.685 538.374 492.398 601.229C437.111 664.084 325.368 665.219 215.573 664.084C105.777 662.569 -1.29329 658.783 -32.0516 609.559C-62.81 560.335 -17.2565 465.674 36.4733 375.557C90.2031 285.818 151.72 200.623 237.765 186.992C323.422 173.361 433.996 230.915 490.062 322.168Z" fill="#E8DAFF"/>
<path d="M458.65 1888.49C496.29 1925.64 519.345 1967.49 540.988 2008.48C562.631 2049.04 582.392 2088.33 580.039 2126.33C577.687 2164.33 552.75 2201.48 525.932 2233.51C499.113 2265.96 469.942 2293.71 434.655 2341.11C399.838 2388.93 358.434 2456.4 308.09 2471.35C257.276 2486.72 196.582 2449.57 131.182 2417.54C65.7826 2385.95 -4.79243 2359.9 -24.5534 2312.5C-44.3144 2265.1 -13.2614 2196.36 -1.02843 2134.02C10.7341 2071.67 4.14706 2015.74 26.7311 1972.61C48.8446 1929.06 100.129 1897.88 153.766 1869.28C206.933 1841.09 262.452 1815.05 315.618 1817.61C369.255 1820.6 421.01 1851.77 458.65 1888.49Z" fill="#9EF0F0"/>
<path d="M1581.93 516.594C1581.93 654.346 1464.44 829.082 1367.64 829.082C1270.85 829.082 1194.76 654.346 1194.76 516.594C1194.76 378.842 1270.85 278.074 1367.64 278.074C1464.44 278.074 1581.93 378.842 1581.93 516.594Z" fill="#FA4D56" fill-opacity="0.74"/>
<path d="M129.796 2033.44C146.726 2082.33 152.456 2115.01 149.07 2151.39C145.684 2187.77 132.921 2227.28 98.0201 2263.94C62.8583 2300.89 5.55771 2334.71 -19.4462 2314.25C-44.4501 2293.79 -37.1573 2219.04 -51.7429 2149.69C-66.589 2080.05 -103.053 2016.1 -88.7279 1967.79C-74.1422 1919.47 -8.76745 1887.07 37.8544 1903.27C84.7367 1919.47 112.866 1984.56 129.796 2033.44Z" fill="#F1C21B"/>
<path d="M1680.25 1429.01C1703.06 1480.85 1684.44 1568.69 1678.86 1626.29C1672.8 1683.89 1679.79 1711.25 1702.13 1752.05C1724.48 1792.37 1762.18 1846.61 1759.85 1889.33C1757.53 1932.05 1714.7 1963.25 1669.55 1961.33C1623.93 1958.93 1576.45 1922.93 1517.33 1943.09C1458.67 1962.77 1388.38 2038.13 1357.66 2031.89C1327.4 2025.17 1336.25 1936.37 1321.35 1873.97C1306.92 1811.57 1268.29 1775.09 1272.94 1741.49C1277.6 1707.41 1325.08 1676.69 1350.21 1633.01C1375.35 1588.85 1378.14 1532.21 1404.21 1482.29C1430.28 1431.89 1479.62 1388.21 1536.41 1374.29C1593.2 1360.85 1657.44 1376.69 1680.25 1429.01Z" fill="#FFD6E8"/>
</g>
<defs>
<clipPath id="clip0_510_790">
<rect width="1512" height="2552" fill="white"/>
</clipPath>
</defs>
</svg>
